<?xml version="1.0" encoding="UTF-8" standalone="no"?>
<!DOCTYPE svg PUBLIC "-//W3C//DTD SVG 1.1//EN" "http://www.w3.org/Graphics/SVG/1.1/DTD/svg11.dtd">
<svg width="100%" height="100%" viewBox="0 0 251 409" version="1.1" xmlns="http://www.w3.org/2000/svg" xmlns:xlink="http://www.w3.org/1999/xlink" xml:space="preserve" xmlns:serif="http://www.serif.com/" style="fill-rule:evenodd;clip-rule:evenodd;stroke-linejoin:round;stroke-miterlimit:2;">
    <g transform="matrix(0.1,0,0,-0.1,0,431.638)">
        <path d="M1998,4315C1997,4313 1921,4309 1830,4306C1592,4299 1472,4291 1415,4280C1388,4275 1316,4266 1255,4260C1105,4245 1068,4241 1049,4234C1039,4232 1019,4227 1004,4225C988,4223 933,4213 882,4204C820,4193 785,4191 778,4198C762,4214 724,4189 689,4138C649,4079 632,4050 624,4028C621,4018 614,4010 609,4010C604,4010 600,4005 600,3999C600,3993 585,3963 567,3932C549,3901 512,3826 485,3765C458,3705 425,3635 410,3610C396,3585 376,3547 367,3525C357,3503 345,3478 340,3470C335,3462 314,3424 295,3385C276,3347 256,3308 250,3300C174,3184 121,3050 114,2959C103,2813 134,2798 387,2834C449,2843 506,2847 514,2844C522,2841 550,2846 576,2855C630,2873 650,2869 650,2840C650,2820 613,2759 598,2752C593,2750 590,2743 590,2736C590,2729 579,2713 565,2700C552,2688 542,2675 542,2671C547,2653 489,2560 340,2345C290,2274 228,2179 203,2135C177,2091 148,2046 138,2036C128,2025 120,2010 120,2002C120,1994 93,1942 60,1887L0,1785L0,1648C0,1573 4,1509 9,1505C15,1502 55,1497 100,1493C198,1486 300,1507 405,1556C444,1575 493,1591 515,1594C537,1596 566,1601 580,1604C594,1607 612,1606 620,1600C643,1586 611,1504 540,1395C507,1346 471,1280 459,1250C447,1220 430,1187 422,1178C414,1168 397,1139 384,1113C354,1053 262,902 186,790C125,700 52,556 30,480C23,455 13,431 8,425C4,420 0,375 0,325L1,235L30,268C46,285 64,300 68,300C73,300 92,315 111,333C130,351 154,372 165,380C176,388 217,434 257,481C348,590 496,720 530,720C534,720 540,723 542,728C544,732 568,750 595,768C623,785 704,862 775,938C847,1014 933,1096 967,1119C1001,1143 1045,1179 1063,1199C1081,1219 1116,1252 1141,1273C1165,1294 1237,1362 1301,1423C1539,1651 1644,1746 1713,1794C1795,1852 2306,2357 2406,2480C2509,2606 2513,2613 2497,2652C2464,2730 2412,2740 2020,2736C1852,2734 1697,2730 1675,2727C1653,2724 1555,2718 1457,2715C1301,2709 1279,2710 1274,2724C1271,2733 1271,2746 1274,2753C1287,2777 1305,2806 1330,2840C1365,2888 1379,2916 1401,2979C1412,3009 1428,3045 1437,3059C1446,3074 1476,3128 1503,3180C1530,3232 1560,3284 1570,3295C1580,3306 1597,3336 1608,3361C1619,3387 1633,3411 1639,3414C1645,3418 1657,3436 1664,3455C1672,3473 1687,3497 1697,3507C1707,3517 1731,3550 1751,3580C1771,3610 1809,3668 1836,3709C1863,3750 1901,3811 1920,3845C1939,3878 1986,3950 2024,4004C2089,4097 2140,4187 2140,4211C2140,4231 2089,4288 2062,4298C2017,4315 2002,4319 1998,4315Z" style="fill-rule:nonzero;"/>
    </g>
</svg>
