<?xml version="1.0" encoding="UTF-8" standalone="no"?>
<!DOCTYPE svg PUBLIC "-//W3C//DTD SVG 1.1//EN" "http://www.w3.org/Graphics/SVG/1.1/DTD/svg11.dtd">
<svg width="100%" height="100%" viewBox="0 0 1638 510" version="1.1" xmlns="http://www.w3.org/2000/svg" xmlns:xlink="http://www.w3.org/1999/xlink" xml:space="preserve" xmlns:serif="http://www.serif.com/" style="fill-rule:evenodd;clip-rule:evenodd;stroke-linejoin:round;stroke-miterlimit:2;">
    <g transform="matrix(0.1,0,0,-0.1,-61.3016,544.802)">
        <path d="M12395,5404C12234,5349 12110,5317 11955,5291C11791,5264 11755,5261 11525,5250C11261,5238 11230,5228 11230,5155C11230,5089 11288,5042 11354,5054C11416,5066 11716,5063 11739,5051C11765,5037 11771,5064 11654,4680C11450,4008 11306,3468 11105,2615C11052,2390 10966,2032 10914,1820C10809,1392 10794,1326 10779,1225C10766,1131 10766,983 10779,934C10806,834 10895,748 10988,734C11054,724 11190,754 11285,800C11394,852 11463,900 11583,1007C11639,1057 11719,1127 11760,1162C11905,1287 11932,1350 11860,1398C11834,1416 11816,1420 11791,1416C11742,1408 11662,1352 11640,1310C11609,1251 11348,1080 11288,1080C11256,1080 11181,1128 11161,1161C11144,1188 11144,1197 11155,1258C11162,1295 11171,1368 11175,1420C11181,1513 11183,1518 11255,1660C11474,2095 11945,3392 12330,4623C12457,5027 12490,5123 12554,5272C12605,5391 12610,5424 12581,5440C12552,5455 12536,5452 12395,5404ZM10520,4676C10458,4653 10360,4600 10155,4482C10045,4419 9913,4347 9863,4323C9809,4298 9764,4270 9754,4256C9746,4242 9727,4169 9714,4093C9675,3872 9607,3640 9480,3293C9470,3264 9460,3258 9402,3241C9303,3212 9229,3200 9088,3192C8933,3182 8920,3174 8920,3094C8920,3065 8924,3039 8929,3035C8935,3032 8994,3023 9062,3014C9173,3001 9358,2966 9367,2957C9373,2950 9311,2664 9260,2467C9082,1781 9079,1767 9070,1648C9064,1576 9052,1507 9039,1468C9019,1410 9018,1392 9024,1250C9037,907 9114,783 9343,736C9469,710 9556,715 9674,754C9881,823 10094,931 10178,1008C10211,1038 10220,1054 10220,1079C10220,1164 10184,1169 10027,1104C9858,1034 9658,1011 9570,1051C9514,1076 9484,1104 9457,1155C9418,1226 9431,1398 9492,1620C9574,1920 9732,2344 9921,2770L9999,2945L10207,2976C10704,3052 10739,3063 10740,3152C10740,3179 10735,3192 10720,3200C10709,3206 10627,3215 10537,3219C10415,3226 10147,3262 10123,3275C10117,3278 10389,3949 10511,4235C10624,4498 10644,4553 10645,4597C10645,4631 10640,4655 10630,4664C10608,4686 10560,4691 10520,4676ZM8148,4475C8147,4473 8071,4469 7980,4466C7742,4459 7622,4451 7565,4440C7538,4435 7466,4426 7405,4420C7255,4405 7218,4401 7199,4394C7189,4392 7169,4387 7154,4385C7138,4383 7083,4373 7032,4364C6970,4353 6935,4351 6928,4358C6912,4374 6874,4349 6839,4298C6799,4239 6782,4210 6774,4188C6771,4178 6764,4170 6759,4170C6754,4170 6750,4165 6750,4159C6750,4153 6735,4123 6717,4092C6699,4061 6662,3986 6635,3925C6608,3865 6575,3795 6560,3770C6546,3745 6526,3707 6517,3685C6507,3663 6495,3638 6490,3630C6485,3622 6464,3584 6445,3545C6426,3507 6406,3468 6400,3460C6324,3344 6271,3210 6264,3119C6253,2973 6284,2958 6537,2994C6599,3003 6656,3007 6664,3004C6672,3001 6700,3006 6726,3015C6780,3033 6800,3029 6800,3000C6800,2980 6763,2919 6748,2912C6743,2910 6740,2903 6740,2896C6740,2889 6729,2873 6715,2860C6702,2848 6692,2835 6692,2831C6697,2813 6639,2720 6490,2505C6440,2434 6378,2339 6353,2295C6327,2251 6298,2206 6288,2196C6278,2185 6270,2170 6270,2162C6270,2154 6241,2099 6206,2040C6125,1904 6110,1863 6117,1785C6123,1699 6148,1664 6206,1656C6323,1640 6434,1660 6555,1717C6594,1735 6643,1751 6665,1754C6687,1756 6716,1761 6730,1764C6744,1767 6762,1766 6770,1760C6793,1746 6761,1664 6690,1555C6657,1506 6621,1440 6609,1410C6597,1380 6580,1347 6572,1338C6564,1328 6547,1299 6534,1273C6504,1213 6412,1062 6336,950C6276,861 6203,717 6180,640C6172,615 6151,569 6133,538C6115,507 6100,479 6100,476C6100,472 6089,452 6076,431C6045,383 6051,350 6089,350C6109,350 6127,363 6160,405C6185,434 6210,459 6216,460C6222,460 6242,475 6261,493C6280,511 6304,532 6315,540C6326,548 6367,594 6407,641C6498,750 6646,880 6680,880C6684,880 6690,883 6692,888C6694,892 6718,910 6745,928C6773,945 6854,1022 6925,1098C6997,1174 7083,1256 7117,1279C7151,1303 7195,1339 7213,1359C7231,1379 7266,1412 7291,1433C7315,1454 7387,1522 7451,1583C7689,1811 7794,1906 7863,1954C7945,2012 8456,2517 8556,2640C8659,2766 8663,2773 8647,2812C8614,2890 8562,2900 8170,2896C8002,2894 7847,2890 7825,2887C7803,2884 7705,2878 7607,2875C7451,2869 7429,2870 7424,2884C7421,2893 7421,2906 7424,2913C7437,2937 7455,2966 7480,3000C7515,3048 7529,3076 7551,3139C7562,3169 7578,3205 7587,3219C7596,3234 7626,3288 7653,3340C7680,3392 7710,3444 7720,3455C7730,3466 7747,3496 7758,3521C7769,3547 7783,3571 7789,3574C7795,3578 7807,3596 7814,3615C7822,3633 7837,3657 7847,3667C7857,3677 7881,3710 7901,3740C7921,3770 7959,3828 7986,3869C8013,3910 8051,3971 8070,4005C8089,4038 8136,4110 8174,4164C8239,4257 8290,4347 8290,4371C8290,4391 8239,4448 8212,4458C8167,4475 8152,4479 8148,4475ZM2525,4163C2509,4161 2430,4156 2350,4151C2207,4141 2095,4116 2102,4095C2104,4089 2112,4086 2120,4087C2128,4088 2162,4089 2195,4090L2305,4090C2333,4091 2389,4086 2430,4080C2471,4073 2536,4069 2574,4070C2630,4071 2641,4068 2637,4056C2633,4046 2643,4036 2668,4025C2741,3993 2751,3986 2746,3973C2735,3946 2751,3931 2783,3936C2811,3940 2813,3939 2794,3929C2778,3921 2753,3922 2689,3935C2502,3973 2405,3980 2262,3965C2063,3946 1962,3908 1845,3811C1812,3784 1751,3738 1710,3709C1669,3680 1597,3624 1550,3585C1503,3547 1444,3498 1419,3478C1394,3458 1300,3368 1209,3278C1083,3153 1027,3090 971,3006C902,2902 856,2817 866,2808C872,2801 837,2704 795,2615C748,2515 667,2284 651,2205C625,2084 620,2054 616,1995C611,1942 612,1939 621,1970C627,1989 644,2032 660,2065C689,2127 740,2254 740,2264C740,2280 815,2419 863,2493C892,2538 929,2604 945,2640C992,2744 1030,2790 1030,2742C1030,2696 936,2430 920,2430C911,2430 894,2387 884,2340C881,2321 866,2283 852,2255C838,2228 825,2199 824,2192C823,2185 815,2168 806,2155C781,2117 751,2030 740,1965C734,1932 723,1878 715,1845C685,1717 687,1441 720,1300C725,1275 734,1202 739,1137L748,1020L819,943C858,901 890,861 890,855C890,842 997,736 1025,722C1166,650 1359,645 1678,704C1696,708 1719,714 1728,719C1737,724 1777,740 1815,755C1962,812 2098,897 2270,1040C2414,1160 2655,1399 2703,1470C2720,1495 2750,1533 2770,1556C2824,1615 2871,1693 2935,1827C2966,1892 3016,1995 3045,2055C3075,2116 3118,2208 3140,2260C3181,2354 3190,2382 3255,2615C3273,2681 3302,2780 3319,2835C3337,2890 3356,2950 3361,2968C3367,2986 3376,3069 3381,3153C3386,3237 3394,3323 3399,3345C3406,3371 3405,3400 3399,3430C3393,3455 3387,3517 3385,3569C3383,3621 3375,3680 3367,3699C3359,3719 3347,3754 3341,3777C3327,3828 3263,3895 3194,3930C3148,3953 3031,4027 3020,4040C3017,4043 2993,4060 2965,4078C2867,4142 2691,4176 2525,4163ZM2420,3643C2434,3627 2454,3602 2464,3585C2475,3569 2489,3551 2497,3547C2524,3530 2567,3423 2584,3325C2594,3270 2609,3191 2618,3150C2642,3036 2639,2816 2609,2565C2583,2348 2484,2093 2369,1947C2347,1919 2319,1878 2308,1856C2297,1833 2260,1783 2226,1743C2193,1703 2147,1648 2125,1620C2103,1592 2049,1539 2005,1502C1961,1465 1905,1415 1880,1391C1814,1327 1764,1296 1680,1266C1616,1243 1549,1236 1536,1251C1524,1265 1500,1322 1500,1336C1500,1346 1492,1362 1483,1373C1467,1390 1450,1446 1416,1590C1400,1660 1404,1850 1425,1975C1430,2008 1441,2048 1464,2125C1472,2153 1490,2228 1505,2293C1530,2405 1559,2509 1579,2555C1607,2623 1644,2696 1667,2733C1682,2756 1709,2804 1728,2840C1772,2923 1921,3151 1943,3169C1953,3177 1968,3199 1977,3219C1992,3249 2041,3320 2103,3400C2156,3469 2215,3536 2275,3597C2355,3679 2380,3687 2420,3643ZM16750,3409C16714,3387 16657,3356 16622,3340C16502,3284 16452,3230 16316,3007C16261,2917 16223,2866 16184,2833C16146,2800 16119,2764 16089,2706C16035,2602 15972,2504 15904,2419C15827,2322 15743,2234 15735,2241C15721,2255 15881,2746 16020,3117C16104,3340 16109,3361 16081,3389C16045,3425 16003,3416 15904,3354C15781,3276 15715,3245 15613,3213C15528,3186 15517,3185 15295,3185C15036,3185 15022,3182 15000,3115C14981,3059 14988,3054 15088,3047C15138,3044 15188,3036 15200,3030C15307,2973 15304,2433 15195,2080C15181,2033 15164,1950 15159,1895C15141,1715 15086,1526 14919,1079C14865,933 14820,803 14820,791C14820,764 14864,744 14972,722C15064,704 15094,713 15136,768C15169,810 15242,957 15334,1166C15403,1320 15445,1401 15585,1640C15807,2022 15846,2084 15876,2103C15892,2114 15940,2166 15981,2218C16118,2394 16258,2556 16299,2589L16340,2622L16434,2596C16511,2574 16548,2569 16641,2569C16825,2569 16920,2599 16920,2655C16920,2686 16899,2697 16799,2716C16660,2742 16620,2774 16620,2858C16620,2930 16659,2987 16825,3158C16995,3333 17007,3354 16964,3401C16908,3463 16841,3465 16750,3409ZM5251,3380C5066,3331 4869,3212 4500,2925C4415,2858 4318,2785 4285,2762C4197,2701 4193,2698 4177,2659C4169,2640 4148,2613 4131,2599C4051,2538 4018,2503 3962,2422C3774,2146 3602,1773 3571,1575C3562,1512 3565,1490 3586,1477C3606,1465 3670,1346 3670,1321C3670,1280 3699,1242 3755,1210C3825,1170 3849,1134 3900,990C3951,848 3980,798 4032,760C4085,721 4137,708 4230,708C4338,708 4443,744 4625,843C4642,852 4684,872 4720,887C4756,902 4817,935 4855,961C4963,1035 5175,1216 5283,1328C5364,1412 5380,1434 5380,1460C5380,1504 5331,1550 5284,1550C5253,1550 5232,1533 5090,1399C4898,1216 4850,1179 4742,1128C4632,1076 4567,1054 4476,1039C4410,1028 4399,1028 4383,1042C4373,1051 4349,1065 4330,1073C4243,1109 4205,1205 4213,1369C4217,1467 4223,1490 4284,1667C4320,1773 4350,1871 4350,1884C4350,1898 4369,1944 4391,1987C4414,2030 4439,2078 4447,2093C4462,2121 4465,2122 4514,2116C4593,2106 4721,2108 4760,2120C4779,2126 4838,2135 4890,2140C4972,2148 4998,2156 5075,2194C5125,2219 5206,2270 5255,2307C5379,2400 5590,2608 5624,2669C5670,2754 5691,2858 5697,3036L5703,3197L5639,3262C5562,3340 5531,3362 5466,3384C5402,3405 5343,3404 5251,3380ZM5313,3164C5382,3158 5410,3143 5410,3111C5410,3102 5417,3085 5425,3074C5451,3040 5443,2968 5405,2888C5386,2848 5369,2803 5366,2788C5358,2750 5204,2577 5102,2492C4959,2373 4699,2263 4583,2272C4554,2275 4528,2279 4525,2282C4517,2289 4665,2566 4743,2691C4867,2891 5004,3056 5114,3137C5163,3174 5177,3179 5209,3175C5229,3173 5275,3168 5313,3164ZM14000,3380C13838,3337 13586,3185 13286,2950C13198,2881 13088,2798 13041,2765C12976,2719 12949,2693 12930,2657C12914,2626 12887,2598 12853,2575C12692,2467 12346,1805 12323,1562C12317,1502 12319,1497 12343,1474C12358,1460 12370,1445 12370,1439C12370,1434 12379,1416 12391,1401C12403,1385 12416,1351 12421,1324C12431,1270 12457,1237 12512,1209C12569,1180 12606,1126 12646,1011C12733,764 12792,709 12975,708C13072,707 13199,746 13328,816C13374,841 13436,870 13467,882C13573,921 13794,1091 14006,1297C14109,1397 14139,1439 14132,1475C14125,1512 14075,1550 14033,1550C14001,1550 13984,1537 13861,1417C13786,1343 13698,1261 13665,1234C13558,1146 13378,1065 13233,1040C13167,1028 13159,1029 13133,1046C13118,1056 13088,1073 13067,1083C12992,1121 12965,1190 12965,1345C12965,1455 12965,1456 13032,1650C13068,1757 13102,1863 13105,1885C13109,1907 13135,1969 13164,2023L13215,2121L13280,2115C13396,2105 13444,2106 13535,2123C13585,2132 13656,2144 13695,2149C13740,2156 13790,2172 13836,2195C13941,2249 14107,2378 14239,2509C14364,2633 14394,2680 14425,2800C14443,2870 14464,3175 14452,3196C14448,3204 14416,3239 14381,3275C14268,3390 14155,3422 14000,3380ZM14060,3165C14132,3158 14160,3146 14160,3124C14160,3116 14169,3091 14181,3068C14208,3015 14202,2971 14155,2882C14136,2846 14120,2807 14120,2794C14120,2781 14098,2745 14068,2710C14039,2676 14001,2631 13985,2611C13928,2540 13781,2426 13682,2376C13587,2328 13437,2279 13370,2274C13270,2266 13266,2273 13320,2377C13489,2705 13683,2986 13815,3095C13906,3170 13923,3179 13960,3175C13979,3173 14024,3168 14060,3165Z" style="fill:rgb(152,152,161);fill-rule:nonzero;"/>
    </g>
</svg>
